<svg width="32" height="32" viewBox="0 0 32 32" fill="none" xmlns="http://www.w3.org/2000/svg">
<rect width="32" height="32" fill="white" fill-opacity="0.01"/>
<path fill-rule="evenodd" clip-rule="evenodd" d="M14.6665 2.66699C21.2939 2.66699 26.6665 8.03958 26.6665 14.667C26.6665 17.5003 25.6845 20.1043 24.0424 22.1572L28.9426 27.0575C29.4633 27.5782 29.4633 28.4224 28.9426 28.9431C28.4219 29.4638 27.5777 29.4638 27.057 28.9431L22.1568 24.0429C20.1039 25.685 17.4999 26.667 14.6665 26.667C8.03909 26.667 2.6665 21.2944 2.6665 14.667C2.6665 8.03958 8.03909 2.66699 14.6665 2.66699ZM21.1417 21.3888C19.4634 23.0059 17.1811 24.0003 14.6665 24.0003C9.51185 24.0003 5.33317 19.8216 5.33317 14.667C5.33317 9.51233 9.51185 5.33366 14.6665 5.33366C19.8212 5.33366 23.9998 9.51233 23.9998 14.667C23.9998 17.1816 23.0054 19.4639 21.3883 21.1422C21.3427 21.1773 21.2988 21.2157 21.257 21.2575C21.2152 21.2993 21.1768 21.3432 21.1417 21.3888Z" fill="black"/>
</svg>
