<svg width="20" height="18" viewBox="0 0 20 18" fill="none" xmlns="http://www.w3.org/2000/svg">
<path fill-rule="evenodd" clip-rule="evenodd" d="M9.16951 5.05932C9.23527 3.23482 10.3855 1.61483 12.1048 0.95862C13.7151 0.343992 15.5165 0.692459 16.7775 1.82099C17.4543 1.57223 18.0962 1.23557 18.6865 0.819158C19.3157 0.375336 20.1587 0.949193 19.9765 1.69731C19.6911 2.86943 19.1189 3.9498 18.3143 4.84264C18.3267 4.97762 18.3331 5.11348 18.3335 5.25013C18.3335 15.133 8.79515 20.2099 0.428838 15.5619C-0.338397 15.1357 -0.0103306 13.9659 0.866661 14.0008C2.27216 14.0567 3.6635 13.7773 4.92867 13.1945C3.09189 12.0623 1.91576 10.5634 1.33878 8.7903C0.743056 6.95952 0.83001 5.03561 1.327 3.20844C1.47734 2.65573 1.63014 2.23927 1.7387 1.99501C2.00176 1.40313 2.80993 1.32448 3.18217 1.85453C4.52541 3.76723 6.6214 4.9869 8.91142 5.23231L9.16664 5.25555L9.16951 5.05932ZM17.3633 3.38138L17.0785 3.48154L16.7905 3.57307C16.4766 3.66758 16.1365 3.56932 15.9214 3.32199C15.1229 2.40379 13.836 2.0818 12.6991 2.51572C11.5622 2.94965 10.8172 4.04719 10.8335 5.27513V6.10846C10.8335 6.56028 10.4735 6.9298 10.0218 6.94151C7.30453 7.01197 4.7085 5.94232 2.83692 4.03618C2.50773 5.45709 2.48366 6.9224 2.92366 8.27458C3.48785 10.0084 4.77938 11.416 7.00532 12.4053C7.60263 12.6708 7.67571 13.4892 7.1349 13.8563C6.20231 14.4893 5.18047 14.9644 4.11021 15.2699C10.5095 16.9535 16.6669 12.7053 16.6669 5.25288C16.6663 5.07234 16.6489 4.89225 16.615 4.71492C16.5628 4.4417 16.6503 4.16044 16.8484 3.96512C17.034 3.78205 17.206 3.58693 17.3633 3.38138Z" fill="#7F7F7F"/>
</svg>
