<svg width="20" height="16" viewBox="0 0 20 16" fill="none" xmlns="http://www.w3.org/2000/svg">
<path fill-rule="evenodd" clip-rule="evenodd" d="M9.80194 0.500488L10.2858 0.500801L11.3952 0.510582C11.9667 0.518038 12.5579 0.52954 13.1433 0.545997L13.726 0.564139C15.4818 0.624376 16.7324 0.719425 17.3935 0.881436C18.4793 1.18861 19.3178 2.05305 19.6034 3.20203C19.8769 4.71815 20.0097 6.25631 20 7.78863C20.0054 9.30616 19.8727 10.821 19.5917 12.369C19.3178 13.4635 18.4792 14.328 17.382 14.6383C16.8236 14.7877 15.7957 14.8861 14.3682 14.9528L13.776 14.9778C13.1558 15.0015 12.5033 15.0189 11.8429 15.0308L10.5251 15.0476H9.47487L8.1571 15.0308C7.49665 15.0189 6.84416 15.0015 6.22396 14.9778L5.63178 14.9528C4.20418 14.8861 3.17585 14.7875 2.6134 14.6371C1.55059 14.3463 0.716995 13.5213 0.396562 12.3812C0.123086 10.8651 -0.00966287 9.32695 3.90026e-06 7.79575C-0.00755133 6.2667 0.125189 4.74019 0.408265 3.18096C0.682235 2.08638 1.52074 1.22194 2.61803 0.911589C3.19743 0.756633 4.28432 0.656187 5.79531 0.589641L6.88657 0.549453C7.56114 0.528918 8.23766 0.515619 8.87544 0.507958L9.80194 0.500488ZM9.80287 2.16716L9.35796 2.16987C8.6305 2.17572 7.83308 2.189 7.03728 2.21236L5.92802 2.25224C4.51544 2.31381 3.47993 2.40631 3.06019 2.51849C2.54892 2.66314 2.15407 3.0702 2.03677 3.53119C1.78349 4.93566 1.6596 6.3604 1.66664 7.79686C1.65762 9.23471 1.78151 10.6703 2.01813 12.005C2.16024 12.5041 2.55278 12.8926 3.04863 13.0283C3.48696 13.1455 4.56156 13.2403 6.0253 13.3019L6.90621 13.3336C7.32484 13.3464 7.75466 13.3566 8.18825 13.3644L9.48691 13.3809H10.5131L11.8117 13.3644C12.2453 13.3566 12.6751 13.3464 13.0938 13.3336L13.9747 13.3019L14.7118 13.2662C15.7973 13.2063 16.5878 13.1255 16.9398 13.0314C17.4511 12.8868 17.8459 12.4797 17.9632 12.0188C18.2145 10.6249 18.3384 9.21098 18.3333 7.7864C18.3424 6.34854 18.2185 4.91294 17.9749 3.5523C17.8459 3.03686 17.4511 2.6298 16.969 2.49284C16.5726 2.39605 15.6744 2.31667 14.4449 2.26061L13.6688 2.22983C12.9098 2.20378 12.1239 2.1869 11.3733 2.1771L10.2815 2.16746L9.80287 2.16716ZM7.29166 5.06663C7.29166 4.42754 7.98141 4.02631 8.53695 4.34224L13.3286 7.06724C13.8905 7.38676 13.8905 8.1965 13.3286 8.51602L8.53695 11.241C7.98141 11.5569 7.29166 11.1557 7.29166 10.5166V5.06663ZM8.95833 9.08405L11.2309 7.79163L8.95833 6.49921V9.08405Z" fill="#7F7F7F"/>
</svg>
