<svg width="20" height="20" viewBox="0 0 20 20" fill="none" xmlns="http://www.w3.org/2000/svg">
<path fill-rule="evenodd" clip-rule="evenodd" d="M19.1668 5.8335C19.1668 3.07207 16.9283 0.833496 14.1668 0.833496H5.8335C3.07207 0.833496 0.833496 3.07207 0.833496 5.8335V14.1668C0.833496 16.9283 3.07207 19.1668 5.8335 19.1668H14.1668C16.9283 19.1668 19.1668 16.9283 19.1668 14.1668V5.8335ZM5.8335 2.50016H14.1668C16.0078 2.50016 17.5002 3.99255 17.5002 5.8335V14.1668C17.5002 16.0078 16.0078 17.5002 14.1668 17.5002H5.8335C3.99255 17.5002 2.50016 16.0078 2.50016 14.1668V5.8335C2.50016 3.99255 3.99255 2.50016 5.8335 2.50016ZM14.1578 9.35293C13.8886 7.53733 12.463 6.11174 10.6474 5.84251C8.8693 5.57884 7.12256 6.48519 6.31441 8.09082C5.50625 9.69644 5.81889 11.6393 7.08994 12.9104C8.36099 14.1814 10.3039 14.4941 11.9095 13.6859C13.5151 12.8778 14.4215 11.131 14.1578 9.35293ZM7.80313 8.84013C8.28802 7.87676 9.33607 7.33295 10.4029 7.49115C11.4923 7.65269 12.3476 8.50804 12.5092 9.5974C12.6674 10.6643 12.1236 11.7123 11.1602 12.1972C10.1968 12.6821 9.03108 12.4945 8.26845 11.7319C7.50582 10.9692 7.31824 9.80351 7.80313 8.84013ZM15.1728 6.00609C14.8473 6.33152 14.3197 6.33152 13.9942 6.00609C13.6688 5.68065 13.6688 5.15301 13.9942 4.82757C14.3197 4.50214 14.8473 4.50214 15.1728 4.82757C15.4982 5.15301 15.4982 5.68065 15.1728 6.00609Z" fill="#7F7F7F"/>
</svg>
